<svg id="visual" viewBox="0 0 960 540" width="960" height="540" xmlns="http://www.w3.org/2000/svg" xmlns:xlink="http://www.w3.org/1999/xlink" version="1.1"><g stroke-width="1" stroke-linejoin="bevel"><path d="M449.7 253L537.3 240L435.7 210Z" fill="#7d7171" stroke="#7d7171"></path><path d="M537.3 240L551.3 144L435.7 210Z" fill="#423737" stroke="#423737"></path><path d="M449.7 253L542.3 334L537.3 240Z" fill="#554a4a" stroke="#554a4a"></path><path d="M537.3 240L634 211L551.3 144Z" fill="#d5c7c7" stroke="#d5c7c7"></path><path d="M542.3 334L616 259L537.3 240Z" fill="#1f1515" stroke="#1f1515"></path><path d="M551.3 144L395.7 119L435.7 210Z" fill="#423737" stroke="#423737"></path><path d="M435.7 210L327 274L449.7 253Z" fill="#7d7171" stroke="#7d7171"></path><path d="M616 259L634 211L537.3 240Z" fill="#423737" stroke="#423737"></path><path d="M658 108L505.3 63L551.3 144Z" fill="#beb1b1" stroke="#beb1b1"></path><path d="M551.3 144L505.3 63L395.7 119Z" fill="#423737" stroke="#423737"></path><path d="M395.7 119L328 182L435.7 210Z" fill="#a89b9b" stroke="#a89b9b"></path><path d="M449.7 253L427.7 387L542.3 334Z" fill="#7d7171" stroke="#7d7171"></path><path d="M328 182L327 274L435.7 210Z" fill="#beb1b1" stroke="#beb1b1"></path><path d="M327 274L427.7 387L449.7 253Z" fill="#554a4a" stroke="#554a4a"></path><path d="M401.7 0L352 81L395.7 119Z" fill="#554a4a" stroke="#554a4a"></path><path d="M395.7 119L352 81L328 182Z" fill="#000000" stroke="#000000"></path><path d="M427.7 387L448.7 410L542.3 334Z" fill="#7d7171" stroke="#7d7171"></path><path d="M634 211L658 108L551.3 144Z" fill="#7d7171" stroke="#7d7171"></path><path d="M189.3 295L307 320L327 274Z" fill="#d5c7c7" stroke="#d5c7c7"></path><path d="M327 274L307 320L427.7 387Z" fill="#beb1b1" stroke="#beb1b1"></path><path d="M427.7 387L344 431L448.7 410Z" fill="#1f1515" stroke="#1f1515"></path><path d="M542.3 334L636 372L616 259Z" fill="#beb1b1" stroke="#beb1b1"></path><path d="M616 259L717.7 256L634 211Z" fill="#a89b9b" stroke="#a89b9b"></path><path d="M634 211L730.7 125L658 108Z" fill="#1f1515" stroke="#1f1515"></path><path d="M538.3 447L636 372L542.3 334Z" fill="#7d7171" stroke="#7d7171"></path><path d="M658 108L542.3 0L505.3 63Z" fill="#beb1b1" stroke="#beb1b1"></path><path d="M505.3 63L401.7 0L395.7 119Z" fill="#695d5d" stroke="#695d5d"></path><path d="M707.7 352L717.7 256L616 259Z" fill="#302626" stroke="#302626"></path><path d="M542.3 0L401.7 0L505.3 63Z" fill="#d5c7c7" stroke="#d5c7c7"></path><path d="M448.7 410L538.3 447L542.3 334Z" fill="#554a4a" stroke="#554a4a"></path><path d="M618 473L707.7 352L636 372Z" fill="#000000" stroke="#000000"></path><path d="M636 372L707.7 352L616 259Z" fill="#1f1515" stroke="#1f1515"></path><path d="M752.7 210L730.7 125L634 211Z" fill="#7d7171" stroke="#7d7171"></path><path d="M658 108L641 0L542.3 0Z" fill="#a89b9b" stroke="#a89b9b"></path><path d="M307 320L344 431L427.7 387Z" fill="#1f1515" stroke="#1f1515"></path><path d="M447.7 540L512.3 540L538.3 447Z" fill="#d5c7c7" stroke="#d5c7c7"></path><path d="M856.3 351L752.7 210L717.7 256Z" fill="#d5c7c7" stroke="#d5c7c7"></path><path d="M717.7 256L752.7 210L634 211Z" fill="#554a4a" stroke="#554a4a"></path><path d="M751.7 0L641 0L658 108Z" fill="#554a4a" stroke="#554a4a"></path><path d="M401.7 0L308 0L352 81Z" fill="#a89b9b" stroke="#a89b9b"></path><path d="M352 81L244.3 54L328 182Z" fill="#302626" stroke="#302626"></path><path d="M173.3 194L189.3 295L327 274Z" fill="#302626" stroke="#302626"></path><path d="M538.3 447L618 473L636 372Z" fill="#000000" stroke="#000000"></path><path d="M512.3 540L618 473L538.3 447Z" fill="#423737" stroke="#423737"></path><path d="M308 0L244.3 54L352 81Z" fill="#1f1515" stroke="#1f1515"></path><path d="M173.3 194L327 274L328 182Z" fill="#7d7171" stroke="#7d7171"></path><path d="M307 320L177.3 395L344 431Z" fill="#1f1515" stroke="#1f1515"></path><path d="M244.3 54L173.3 194L328 182Z" fill="#beb1b1" stroke="#beb1b1"></path><path d="M447.7 540L538.3 447L448.7 410Z" fill="#554a4a" stroke="#554a4a"></path><path d="M357 540L447.7 540L344 431Z" fill="#beb1b1" stroke="#beb1b1"></path><path d="M344 431L447.7 540L448.7 410Z" fill="#554a4a" stroke="#554a4a"></path><path d="M892.3 278L823.3 170L752.7 210Z" fill="#a89b9b" stroke="#a89b9b"></path><path d="M752.7 210L823.3 170L730.7 125Z" fill="#302626" stroke="#302626"></path><path d="M730.7 125L751.7 0L658 108Z" fill="#938686" stroke="#938686"></path><path d="M814.3 103L751.7 0L730.7 125Z" fill="#423737" stroke="#423737"></path><path d="M823.3 170L814.3 103L730.7 125Z" fill="#beb1b1" stroke="#beb1b1"></path><path d="M512.3 540L617 540L618 473Z" fill="#7d7171" stroke="#7d7171"></path><path d="M618 473L777.7 424L707.7 352Z" fill="#554a4a" stroke="#554a4a"></path><path d="M707.7 352L856.3 351L717.7 256Z" fill="#695d5d" stroke="#695d5d"></path><path d="M183.3 484L357 540L344 431Z" fill="#a89b9b" stroke="#a89b9b"></path><path d="M767.7 540L777.7 424L618 473Z" fill="#423737" stroke="#423737"></path><path d="M308 0L206.3 0L244.3 54Z" fill="#1f1515" stroke="#1f1515"></path><path d="M244.3 54L86.7 60L173.3 194Z" fill="#7d7171" stroke="#7d7171"></path><path d="M128.7 392L177.3 395L189.3 295Z" fill="#7d7171" stroke="#7d7171"></path><path d="M189.3 295L177.3 395L307 320Z" fill="#beb1b1" stroke="#beb1b1"></path><path d="M86.7 60L121.7 203L173.3 194Z" fill="#302626" stroke="#302626"></path><path d="M173.3 194L100.7 240L189.3 295Z" fill="#7d7171" stroke="#7d7171"></path><path d="M121.7 203L100.7 240L173.3 194Z" fill="#302626" stroke="#302626"></path><path d="M0 276L100.7 240L0 146Z" fill="#a89b9b" stroke="#a89b9b"></path><path d="M777.7 424L856.3 351L707.7 352Z" fill="#000000" stroke="#000000"></path><path d="M823.3 170L960 104L814.3 103Z" fill="#695d5d" stroke="#695d5d"></path><path d="M100.7 240L128.7 392L189.3 295Z" fill="#d5c7c7" stroke="#d5c7c7"></path><path d="M177.3 395L183.3 484L344 431Z" fill="#938686" stroke="#938686"></path><path d="M138.7 423L183.3 484L177.3 395Z" fill="#1f1515" stroke="#1f1515"></path><path d="M128.7 392L138.7 423L177.3 395Z" fill="#302626" stroke="#302626"></path><path d="M856.3 351L892.3 278L752.7 210Z" fill="#554a4a" stroke="#554a4a"></path><path d="M960 104L835.3 0L814.3 103Z" fill="#000000" stroke="#000000"></path><path d="M814.3 103L835.3 0L751.7 0Z" fill="#beb1b1" stroke="#beb1b1"></path><path d="M777.7 424L866.3 447L856.3 351Z" fill="#d5c7c7" stroke="#d5c7c7"></path><path d="M856.3 351L960 308L892.3 278Z" fill="#1f1515" stroke="#1f1515"></path><path d="M617 540L767.7 540L618 473Z" fill="#000000" stroke="#000000"></path><path d="M206.3 0L86.7 60L244.3 54Z" fill="#000000" stroke="#000000"></path><path d="M206.3 0L110.7 0L86.7 60Z" fill="#7d7171" stroke="#7d7171"></path><path d="M840.3 540L866.3 447L777.7 424Z" fill="#d5c7c7" stroke="#d5c7c7"></path><path d="M133.7 540L181.3 540L183.3 484Z" fill="#554a4a" stroke="#554a4a"></path><path d="M183.3 484L181.3 540L357 540Z" fill="#000000" stroke="#000000"></path><path d="M960 308L960 195L892.3 278Z" fill="#1f1515" stroke="#1f1515"></path><path d="M892.3 278L960 195L823.3 170Z" fill="#423737" stroke="#423737"></path><path d="M767.7 540L840.3 540L777.7 424Z" fill="#a89b9b" stroke="#a89b9b"></path><path d="M960 396L960 308L856.3 351Z" fill="#554a4a" stroke="#554a4a"></path><path d="M960 396L856.3 351L866.3 447Z" fill="#a89b9b" stroke="#a89b9b"></path><path d="M138.7 423L133.7 540L183.3 484Z" fill="#695d5d" stroke="#695d5d"></path><path d="M0 540L133.7 540L138.7 423Z" fill="#423737" stroke="#423737"></path><path d="M0 410L138.7 423L128.7 392Z" fill="#beb1b1" stroke="#beb1b1"></path><path d="M960 195L960 104L823.3 170Z" fill="#beb1b1" stroke="#beb1b1"></path><path d="M0 146L100.7 240L121.7 203Z" fill="#302626" stroke="#302626"></path><path d="M100.7 240L0 276L128.7 392Z" fill="#7d7171" stroke="#7d7171"></path><path d="M0 146L121.7 203L86.7 60Z" fill="#938686" stroke="#938686"></path><path d="M0 110L0 146L86.7 60Z" fill="#beb1b1" stroke="#beb1b1"></path><path d="M0 0L0 110L86.7 60Z" fill="#938686" stroke="#938686"></path><path d="M960 425L960 396L866.3 447Z" fill="#1f1515" stroke="#1f1515"></path><path d="M960 540L960 425L866.3 447Z" fill="#000000" stroke="#000000"></path><path d="M0 276L0 384L128.7 392Z" fill="#1f1515" stroke="#1f1515"></path><path d="M960 104L960 0L835.3 0Z" fill="#7d7171" stroke="#7d7171"></path><path d="M0 384L0 410L128.7 392Z" fill="#1f1515" stroke="#1f1515"></path><path d="M110.7 0L0 0L86.7 60Z" fill="#beb1b1" stroke="#beb1b1"></path><path d="M840.3 540L960 540L866.3 447Z" fill="#938686" stroke="#938686"></path><path d="M0 410L0 540L138.7 423Z" fill="#423737" stroke="#423737"></path></g></svg>