<svg id="visual" viewBox="0 0 900 600" width="900" height="600" xmlns="http://www.w3.org/2000/svg" xmlns:xlink="http://www.w3.org/1999/xlink" version="1.1"><rect x="0" y="0" width="900" height="600" fill="#001220"></rect><path d="M0 402L21.5 407.7C43 413.3 86 424.7 128.8 418.3C171.7 412 214.3 388 257.2 387C300 386 343 408 385.8 409.8C428.7 411.7 471.3 393.3 514.2 391.2C557 389 600 403 642.8 412.8C685.7 422.7 728.3 428.3 771.2 422.5C814 416.7 857 399.3 878.5 390.7L900 382L900 601L878.5 601C857 601 814 601 771.2 601C728.3 601 685.7 601 642.8 601C600 601 557 601 514.2 601C471.3 601 428.7 601 385.8 601C343 601 300 601 257.2 601C214.3 601 171.7 601 128.8 601C86 601 43 601 21.5 601L0 601Z" fill="#fa7268"></path><path d="M0 457L21.5 459C43 461 86 465 128.8 465.2C171.7 465.3 214.3 461.7 257.2 458.5C300 455.3 343 452.7 385.8 452.8C428.7 453 471.3 456 514.2 451.3C557 446.7 600 434.3 642.8 427.2C685.7 420 728.3 418 771.2 421.2C814 424.3 857 432.7 878.5 436.8L900 441L900 601L878.5 601C857 601 814 601 771.2 601C728.3 601 685.7 601 642.8 601C600 601 557 601 514.2 601C471.3 601 428.7 601 385.8 601C343 601 300 601 257.2 601C214.3 601 171.7 601 128.8 601C86 601 43 601 21.5 601L0 601Z" fill="#ef5f67"></path><path d="M0 497L21.5 488.5C43 480 86 463 128.8 456.7C171.7 450.3 214.3 454.7 257.2 459.2C300 463.7 343 468.3 385.8 472.3C428.7 476.3 471.3 479.7 514.2 482.8C557 486 600 489 642.8 485.5C685.7 482 728.3 472 771.2 467.2C814 462.3 857 462.7 878.5 462.8L900 463L900 601L878.5 601C857 601 814 601 771.2 601C728.3 601 685.7 601 642.8 601C600 601 557 601 514.2 601C471.3 601 428.7 601 385.8 601C343 601 300 601 257.2 601C214.3 601 171.7 601 128.8 601C86 601 43 601 21.5 601L0 601Z" fill="#e34c67"></path><path d="M0 511L21.5 514C43 517 86 523 128.8 522.2C171.7 521.3 214.3 513.7 257.2 513.2C300 512.7 343 519.3 385.8 516C428.7 512.7 471.3 499.3 514.2 496.2C557 493 600 500 642.8 509.3C685.7 518.7 728.3 530.3 771.2 529.2C814 528 857 514 878.5 507L900 500L900 601L878.5 601C857 601 814 601 771.2 601C728.3 601 685.7 601 642.8 601C600 601 557 601 514.2 601C471.3 601 428.7 601 385.8 601C343 601 300 601 257.2 601C214.3 601 171.7 601 128.8 601C86 601 43 601 21.5 601L0 601Z" fill="#d53867"></path><path d="M0 540L21.5 544.5C43 549 86 558 128.8 558.7C171.7 559.3 214.3 551.7 257.2 552C300 552.3 343 560.7 385.8 561.8C428.7 563 471.3 557 514.2 555.3C557 553.7 600 556.3 642.8 556.5C685.7 556.7 728.3 554.3 771.2 550.5C814 546.7 857 541.3 878.5 538.7L900 536L900 601L878.5 601C857 601 814 601 771.2 601C728.3 601 685.7 601 642.8 601C600 601 557 601 514.2 601C471.3 601 428.7 601 385.8 601C343 601 300 601 257.2 601C214.3 601 171.7 601 128.8 601C86 601 43 601 21.5 601L0 601Z" fill="#c62368"></path></svg>